<svg width="63" height="63" viewBox="0 0 63 63" fill="none" xmlns="http://www.w3.org/2000/svg">
<g clip-path="url(#clip0_237_1191)">
<path d="M31.5 61.425C48.0271 61.425 61.4249 48.0271 61.4249 31.5C61.4249 14.9729 48.0271 1.575 31.5 1.575C14.9728 1.575 1.57495 14.9729 1.57495 31.5C1.57495 48.0271 14.9728 61.425 31.5 61.425Z" fill="#FFF7EC" stroke="black" stroke-width="2"/>
<path fill-rule="evenodd" clip-rule="evenodd" d="M16.5376 23.2312C15.3193 23.2312 14.0603 24.0183 13.7653 25.7879C13.6581 26.4313 13.0494 26.866 12.4059 26.7588C11.7624 26.6515 11.3277 26.0429 11.435 25.3994C11.9275 22.4442 14.2122 20.8687 16.5376 20.8687C18.8631 20.8687 21.1478 22.4442 21.6403 25.3994C21.7476 26.0429 21.3129 26.6515 20.6693 26.7588C20.0258 26.866 19.4172 26.4313 19.3099 25.7878C19.0151 24.0183 17.756 23.2312 16.5376 23.2312Z" fill="#18181B"/>
<path fill-rule="evenodd" clip-rule="evenodd" d="M46.4627 23.2312C45.2444 23.2312 43.9854 24.0183 43.6904 25.7879C43.5831 26.4313 42.9745 26.866 42.331 26.7588C41.6875 26.6515 41.2528 26.0429 41.36 25.3994C41.8527 22.4442 44.1374 20.8687 46.4627 20.8687C48.7882 20.8687 51.0729 22.4442 51.5654 25.3994C51.6726 26.0429 51.2379 26.6515 50.5944 26.7588C49.9508 26.866 49.3423 26.4313 49.235 25.7878C48.9402 24.0183 47.6811 23.2312 46.4627 23.2312Z" fill="#18181B"/>
<path fill-rule="evenodd" clip-rule="evenodd" d="M31.6968 46.2656C26.9213 46.2656 21.8806 44.2454 17.3357 40.0792C16.8548 39.6383 16.1075 39.6709 15.6667 40.1518C15.2259 40.6326 15.2584 41.38 15.7393 41.8208C20.6443 46.317 26.2349 48.6281 31.6968 48.6281C37.1709 48.6281 42.4032 46.305 46.5491 41.7446C46.9879 41.2619 46.9523 40.5148 46.4695 40.0759C45.9868 39.6371 45.2398 39.6727 44.8008 40.1554C41.0717 44.2575 36.4603 46.2656 31.6968 46.2656Z" fill="#18181B"/>
<path d="M18.9 37.0125C18.9 40.057 16.432 42.525 13.3875 42.525C10.343 42.525 7.875 40.057 7.875 37.0125C7.875 33.968 10.343 31.5 13.3875 31.5C16.432 31.5 18.9 33.968 18.9 37.0125Z" fill="#FFCAD2"/>
<path fill-rule="evenodd" clip-rule="evenodd" d="M13.3875 40.95C15.5621 40.95 17.325 39.1871 17.325 37.0125C17.325 34.8379 15.5621 33.075 13.3875 33.075C11.2129 33.075 9.45 34.8379 9.45 37.0125C9.45 39.1871 11.2129 40.95 13.3875 40.95ZM13.3875 42.525C16.432 42.525 18.9 40.057 18.9 37.0125C18.9 33.968 16.432 31.5 13.3875 31.5C10.343 31.5 7.875 33.968 7.875 37.0125C7.875 40.057 10.343 42.525 13.3875 42.525Z" fill="black"/>
<path d="M55.1251 37.0125C55.1251 40.057 52.6571 42.525 49.6126 42.525C46.5681 42.525 44.1001 40.057 44.1001 37.0125C44.1001 33.968 46.5681 31.5 49.6126 31.5C52.6571 31.5 55.1251 33.968 55.1251 37.0125Z" fill="#FFCAD2"/>
<path fill-rule="evenodd" clip-rule="evenodd" d="M49.6126 40.95C51.7872 40.95 53.5501 39.1871 53.5501 37.0125C53.5501 34.8379 51.7872 33.075 49.6126 33.075C47.438 33.075 45.6751 34.8379 45.6751 37.0125C45.6751 39.1871 47.438 40.95 49.6126 40.95ZM49.6126 42.525C52.6571 42.525 55.1251 40.057 55.1251 37.0125C55.1251 33.968 52.6571 31.5 49.6126 31.5C46.5681 31.5 44.1001 33.968 44.1001 37.0125C44.1001 40.057 46.5681 42.525 49.6126 42.525Z" fill="black"/>
</g>
<defs>
<clipPath id="clip0_237_1191">
<rect width="63" height="63" fill="white"/>
</clipPath>
</defs>
</svg>
